<?xml version="1.0" encoding="UTF-8" standalone="no"?>
<!-- Created with Inkscape (http://www.inkscape.org/) -->

<svg
   width="8mm"
   height="8mm"
   viewBox="0 0 8 8"
   version="1.1"
   id="svg5"
   inkscape:version="1.4.3 (0d15f75, 2025-12-25)"
   sodipodi:docname="marker-engaged-available.svg"
   xml:space="preserve"
   xmlns:inkscape="http://www.inkscape.org/namespaces/inkscape"
   xmlns:sodipodi="http://sodipodi.sourceforge.net/DTD/sodipodi-0.dtd"
   xmlns="http://www.w3.org/2000/svg"
   xmlns:svg="http://www.w3.org/2000/svg"><sodipodi:namedview
     id="namedview7"
     pagecolor="#333333"
     bordercolor="#666666"
     borderopacity="1.0"
     inkscape:pageshadow="2"
     inkscape:pageopacity="0"
     inkscape:pagecheckerboard="true"
     inkscape:document-units="mm"
     showgrid="false"
     inkscape:zoom="9.22581"
     inkscape:cx="29.536702"
     inkscape:cy="14.470274"
     inkscape:window-width="1680"
     inkscape:window-height="979"
     inkscape:window-x="-8"
     inkscape:window-y="-8"
     inkscape:window-maximized="1"
     inkscape:current-layer="text1079"
     inkscape:showpageshadow="0"
     inkscape:deskcolor="#505050" /><defs
     id="defs2" /><g
     inkscape:label="Layer 1"
     inkscape:groupmode="layer"
     id="layer1"><g
       aria-label="🖶"
       id="text1079"
       style="font-size:10.5833px;line-height:1.2;font-family:Consolas;-inkscape-font-specification:Consolas;stroke-width:0.264583;fill:#ffffff"
       transform="matrix(1.0460131,0,0,1.0460131,-81.715378,-48.937621)"><path
         id="rect1"
         style="fill:#d9522a;stroke:#f9f9f9;stroke-width:0.164052;stroke-linejoin:round;stroke-dasharray:none;stroke-dashoffset:0;fill-opacity:1"
         d="m 80.314894,47.663542 c 0.907909,0.495471 2.121758,0.429095 3.062306,0.0043 0.149639,-0.0676 0.159372,-0.069 0.243034,0.127807 l 1.640304,5.221094 c -1.467483,0.787339 -5.640749,0.798429 -6.631392,0 l 1.475946,-5.232173 c 0.04927,-0.207317 0.04245,-0.212287 0.209802,-0.120957 z"
         sodipodi:nodetypes="ssccccs" /><g
         id="g2"
         transform="matrix(5.0113771,0,0,5.0113771,-313.43911,-179.34244)"><path
           id="path1"
           style="fill:#ffffff;fill-opacity:1;stroke:none;stroke-width:0.111852;stroke-linecap:round;stroke-linejoin:round;stroke-dasharray:none"
           d="m 78.783515,45.75323 a 0.26054374,0.26054374 0 0 0 -0.221222,0.214917 h 0.04519 a 0.21634551,0.20723254 0 0 1 0.176031,-0.161319 z m 0.08408,0.0022 v 0.05412 a 0.21634551,0.20723254 0 0 1 0.16342,0.158692 h 0.04519 a 0.26054374,0.26054374 0 0 0 -0.208611,-0.212815 z m -0.305822,0.296363 a 0.26054374,0.26054374 0 0 0 0.221747,0.217543 v -0.0536 a 0.21634551,0.20723254 0 0 1 -0.176557,-0.163993 z m 0.469767,0 a 0.21634551,0.20723254 0 0 1 -0.163945,0.161317 v 0.05412 a 0.26054374,0.26054374 0 0 0 0.209136,-0.215441 z" /><path
           style="fill:#ffffff;stroke:none;stroke-width:0.252945px;stroke-linecap:butt;stroke-linejoin:miter;stroke-opacity:1"
           d="m 78.89019,45.725919 0.0497,-0.186779 0.07882,0.137086 0.109668,-0.101101 -0.0257,0.138799 0.176498,-0.02228 -0.128518,0.107955 0.171357,0.08396 -0.209055,0.0634 c -0.04912,-0.119377 -0.123379,-0.193054 -0.222766,-0.22104 z"
           id="path2"
           sodipodi:nodetypes="cccccccccc" /><rect
           style="fill:#ffffff;fill-opacity:1;stroke:none;stroke-width:0.105161;stroke-linecap:round;stroke-linejoin:round;stroke-dasharray:none"
           id="rect2"
           width="0.049693417"
           height="0.15593451"
           x="78.797661"
           y="45.691647" /><rect
           style="font-size:10.5833px;line-height:1.2;font-family:Consolas;-inkscape-font-specification:Consolas;fill:#ffffff;fill-opacity:1;stroke:none;stroke-width:0.105161;stroke-linecap:round;stroke-linejoin:round;stroke-dasharray:none"
           id="rect2-2"
           width="0.049693417"
           height="0.15593451"
           x="78.797379"
           y="46.165531" /><rect
           style="font-size:10.5833px;line-height:1.2;font-family:Consolas;-inkscape-font-specification:Consolas;fill:#ffffff;fill-opacity:1;stroke:none;stroke-width:0.105161;stroke-linecap:round;stroke-linejoin:round;stroke-dasharray:none"
           id="rect2-5"
           width="0.049693417"
           height="0.15593451"
           x="45.983452"
           y="-79.137276"
           transform="rotate(90)" /><rect
           style="font-size:10.5833px;line-height:1.2;font-family:Consolas;-inkscape-font-specification:Consolas;fill:#ffffff;fill-opacity:1;stroke:none;stroke-width:0.105161;stroke-linecap:round;stroke-linejoin:round;stroke-dasharray:none"
           id="rect2-2-5"
           width="0.049693417"
           height="0.15593451"
           x="45.98317"
           y="-78.663391"
           transform="rotate(90)" /></g></g></g></svg>
